<svg width="24" height="24" viewBox="0 0 785 702" fill="none" xmlns="http://www.w3.org/2000/svg">
  <!-- Bottom arc (smile) -->
  <path d="M761.857 366.416C758.045 365.365 754.063 365.076 750.14 365.567C746.216 366.057 742.428 367.317 738.992 369.274C735.556 371.23 732.54 373.846 730.116 376.97C727.693 380.094 725.909 383.666 724.868 387.48C704.75 460.145 661.433 524.243 601.516 570.012C541.598 615.781 468.364 640.713 392.966 641.01C317.569 641.307 244.14 616.954 183.863 571.659C123.587 526.364 79.7657 462.61 59.0745 390.106C57.9739 386.306 56.1354 382.759 53.6641 379.668C51.1927 376.578 48.1369 374.005 44.6711 372.096C37.6715 368.24 29.4268 367.322 21.7507 369.545C14.0746 371.768 7.59595 376.949 3.7399 383.948C-0.116154 390.948 -1.03369 399.192 1.18912 406.869C25.4684 492.018 76.9198 566.896 147.703 620.092C218.486 673.287 304.719 701.883 393.262 701.523C481.805 701.162 567.803 671.864 638.15 618.094C708.497 564.323 759.337 489.029 782.921 403.684C784.007 399.854 784.322 395.846 783.848 391.893C783.375 387.941 782.123 384.121 780.164 380.655C778.205 377.19 775.578 374.147 772.436 371.703C769.294 369.258 765.698 367.462 761.857 366.416Z" fill="currentColor"/>
  <!-- Wave/M shape -->
  <path d="M184.957 122.191L233.455 346.861C236.072 358.918 242.677 369.741 252.203 377.583C261.728 385.424 273.619 389.826 285.954 390.078C298.29 390.33 310.35 386.417 320.188 378.971C330.026 371.525 337.067 360.98 340.174 349.04L392.025 148.843L443.82 349.04C446.906 361.007 453.942 371.582 463.788 379.052C473.634 386.521 485.714 390.448 498.07 390.196C510.426 389.944 522.336 385.527 531.869 377.662C541.402 369.797 548 358.944 550.596 346.861L599.038 122.191L624.183 242.878L696.819 237.291L689.778 205.108C681.567 156.356 669.802 108.269 654.577 61.233C629.825 -13.3028 573.951 -13.3028 558.083 26.9264C542.214 67.1556 495.616 259.083 495.616 259.083L445.72 51.1757C442.731 38.6855 435.998 27.4066 426.422 18.8489C416.845 10.2912 404.883 4.86322 392.137 3.29173C379.381 4.85254 367.406 10.2757 357.819 18.8342C348.232 27.3927 341.49 38.6774 338.498 51.1757L288.603 259.083C288.603 259.083 242.004 67.3233 226.08 26.9264C210.156 -13.4705 154.17 -13.3028 129.585 61.2889C114.328 108.32 102.544 156.408 94.329 205.164L87.7932 242.878H160.429L184.957 122.191Z" fill="currentColor"/>
  <!-- Left dot -->
  <circle cx="124.083" cy="245.644" r="36.29" fill="currentColor"/>
  <!-- Right dot -->
  <circle cx="660.501" cy="240.085" r="36.318" fill="currentColor"/>
</svg>
